<?xml version="1.0" encoding="UTF-8" standalone="no" ?>
<!DOCTYPE svg PUBLIC "-//W3C//DTD SVG 1.1//EN" "http://www.w3.org/Graphics/SVG/1.1/DTD/svg11.dtd">
<svg xmlns="http://www.w3.org/2000/svg" xmlns:xlink="http://www.w3.org/1999/xlink" version="1.1" width="500" height="500" viewBox="0 0 500 500" xml:space="preserve">
<desc>Created with Fabric.js 4.6.0</desc>
<defs>
</defs>
<g transform="matrix(5.06 0 0 1.98 318.75 99.76)" id="DRslKlwFpnfwz8e40u3Qi"  >
<path style="stroke: rgb(230,73,32); stroke-width: 0; stroke-dasharray: none; stroke-linecap: butt; stroke-dashoffset: 0; stroke-linejoin: miter; stroke-miterlimit: 4; fill: rgb(0,0,0); fill-rule: nonzero; opacity: 1;" vector-effect="non-scaling-stroke"  transform=" translate(0, 0)" d="M -31.83855 -10 L 31.83855 -10 L 31.83855 10 L -31.83855 10 z" stroke-linecap="round" />
</g>
<g transform="matrix(1.98 0 0 1.98 318.75 415.71)" id="9QtG-MY9wMQjO_rCjKWwU"  >
<path style="stroke: rgb(123,195,242); stroke-width: 0; stroke-dasharray: none; stroke-linecap: butt; stroke-dashoffset: 0; stroke-linejoin: miter; stroke-miterlimit: 4; fill: rgb(0,0,0); fill-rule: nonzero; opacity: 1;" vector-effect="non-scaling-stroke"  transform=" translate(0, 0)" d="M -81.61435 -10 L 81.61435 -10 L 81.61435 10 L -81.61435 10 z" stroke-linecap="round" />
</g>
<g transform="matrix(1.98 0 0 1.98 460.24 257.73)" id="RQZP0CERyENXHJjgczhu1"  >
<path style="stroke: rgb(98,111,115); stroke-width: 0; stroke-dasharray: none; stroke-linecap: butt; stroke-dashoffset: 0; stroke-linejoin: miter; stroke-miterlimit: 4; fill: rgb(0,0,0); fill-rule: nonzero; opacity: 1;" vector-effect="non-scaling-stroke"  transform=" translate(0, 0)" d="M -10 -69.95515 L 10 -69.95515 L 10 69.95515 L -10 69.95515 z" stroke-linecap="round" />
</g>
<g transform="matrix(1.69 0 0 1.69 302.25 262.46)" id="nITE4REdeLF0bmsNQ6cs6"  >
<path style="stroke: none; stroke-width: 1; stroke-dasharray: none; stroke-linecap: butt; stroke-dashoffset: 0; stroke-linejoin: miter; stroke-miterlimit: 4; fill: rgb(0,0,0); fill-rule: nonzero; opacity: 1;" vector-effect="non-scaling-stroke"  transform=" translate(-40, -40)" d="M 63.366 80 L 40 56.634 L 16.634 80 L 0 63.366 L 23.366 40 L 0 16.634 L 16.634 0 L 40 23.366 L 63.366 0 L 80 16.634 L 56.634 40 L 80 63.366 L 63.366 80 z" stroke-linecap="round" />
</g>
<g transform="matrix(1.27 -1.51 1.51 1.27 95.55 181.61)" id="dYukSgVDiqMhdQj1xXS3q"  >
<path style="stroke: rgb(25,53,133); stroke-width: 0; stroke-dasharray: none; stroke-linecap: butt; stroke-dashoffset: 0; stroke-linejoin: miter; stroke-miterlimit: 4; fill: rgb(0,0,0); fill-rule: nonzero; opacity: 1;" vector-effect="non-scaling-stroke"  transform=" translate(0, 0)" d="M -58.7444 -10 L 58.7444 -10 L 58.7444 10 L -58.7444 10 z" stroke-linecap="round" />
</g>
<g transform="matrix(1.27 1.51 -1.51 1.27 95.55 334.03)" id="kItTVFNh4TEvb-qXXtoCS"  >
<path style="stroke: rgb(45,73,139); stroke-width: 0; stroke-dasharray: none; stroke-linecap: butt; stroke-dashoffset: 0; stroke-linejoin: miter; stroke-miterlimit: 4; fill: rgb(0,0,0); fill-rule: nonzero; opacity: 1;" vector-effect="non-scaling-stroke"  transform=" translate(0, 0)" d="M -58.7444 -10 L 58.7444 -10 L 58.7444 10 L -58.7444 10 z" stroke-linecap="round" />
</g>
<g transform="matrix(1.98 0 0 1.98 157.93 81.04)" id="0RYRcyQpUQTGt6JsdP2xU"  >
<path style="stroke: rgb(0,0,0); stroke-width: 1; stroke-dasharray: none; stroke-linecap: round; stroke-dashoffset: 0; stroke-linejoin: round; stroke-miterlimit: 10; fill: none; fill-rule: nonzero; opacity: 1;" vector-effect="non-scaling-stroke"  transform=" translate(-156.99, -60.53)" d="M 157.8027455293409 60.52874747337442 Q 157.8017455293409 60.52874747337442 157.66661039420578 60.52874747337442 Q 157.53147525907065 60.52874747337442 157.3963401239355 60.52874747337442 Q 157.26120498880036 60.52874747337442 157.12606985366523 60.52874747337442 Q 156.9909347185301 60.52874747337442 156.85579958339497 60.52874747337442 Q 156.72066444825984 60.52874747337442 156.45039417798955 60.52874747337442 L 156.1791239077193 60.52874747337442" stroke-linecap="round" />
</g>
<g transform="matrix(1.98 0 0 1.98 159 433.58)" id="mtdGE89t8TSDDI4dQOv7z"  >
<path style="stroke: rgb(0,0,0); stroke-width: 1; stroke-dasharray: none; stroke-linecap: round; stroke-dashoffset: 0; stroke-linejoin: round; stroke-miterlimit: 10; fill: none; fill-rule: nonzero; opacity: 1;" vector-effect="non-scaling-stroke"  transform=" translate(-157.53, -238.96)" d="M 155.90885363744897 238.68698779477694 Q 155.90985363744898 238.68798779477694 156.04498877258413 238.68798779477694 Q 156.1801239077193 238.68798779477694 156.45039417798955 238.82312292991207 Q 156.7206644482598 238.9582580650472 156.85579958339494 238.9582580650472 Q 156.99093471853007 238.9582580650472 157.1260698536652 238.9582580650472 Q 157.26120498880033 238.9582580650472 157.3963401239355 238.9582580650472 Q 157.53147525907065 238.9582580650472 157.66661039420578 238.9582580650472 Q 157.8017455293409 238.9582580650472 157.93688066447604 238.9582580650472 Q 158.07201579961117 238.9582580650472 158.07201579961117 239.09339320018233 Q 158.07201579961117 239.2285283353175 158.2071509347463 239.2285283353175 Q 158.34228606988142 239.2285283353175 158.74769147528684 239.2285283353175 L 159.15409688069226 239.2285283353175" stroke-linecap="round" />
</g>
<g transform="matrix(1.98 0 0 1.98 156.86 433.05)" id="rmqDt5ozPxw6DyGr1QlCE"  >
<path style="stroke: rgb(0,0,0); stroke-width: 1; stroke-dasharray: none; stroke-linecap: round; stroke-dashoffset: 0; stroke-linejoin: round; stroke-miterlimit: 10; fill: none; fill-rule: nonzero; opacity: 1;" vector-effect="non-scaling-stroke"  transform=" translate(-156.45, -238.69)" d="M 156.44939417798955 238.68798779477694 L 156.45139417798956 238.68798779477694" stroke-linecap="round" />
</g>
<g transform="matrix(1.98 0 0 1.98 156.86 433.58)" id="evt-HNUYHgvJcZzAk24ZF"  >
<path style="stroke: rgb(0,0,0); stroke-width: 1; stroke-dasharray: none; stroke-linecap: round; stroke-dashoffset: 0; stroke-linejoin: round; stroke-miterlimit: 10; fill: none; fill-rule: nonzero; opacity: 1;" vector-effect="non-scaling-stroke"  transform=" translate(-156.45, -238.96)" d="M 156.44939417798955 238.9582580650472 L 156.45139417798956 238.9582580650472" stroke-linecap="round" />
</g>
<g transform="matrix(1.98 0 0 1.98 155.79 434.12)" id="u-VW2lg9QEZxMaBA5x9LG"  >
<path style="stroke: rgb(0,0,0); stroke-width: 1; stroke-dasharray: none; stroke-linecap: round; stroke-dashoffset: 0; stroke-linejoin: round; stroke-miterlimit: 10; fill: none; fill-rule: nonzero; opacity: 1;" vector-effect="non-scaling-stroke"  transform=" translate(-155.91, -239.23)" d="M 155.90885363744897 239.2285283353175 L 155.91085363744898 239.2285283353175" stroke-linecap="round" />
</g>
<g transform="matrix(1.98 0 0 1.98 156.33 434.65)" id="Y3kQJs-c27qkMmAKOqsXf"  >
<path style="stroke: rgb(0,0,0); stroke-width: 1; stroke-dasharray: none; stroke-linecap: round; stroke-dashoffset: 0; stroke-linejoin: round; stroke-miterlimit: 10; fill: none; fill-rule: nonzero; opacity: 1;" vector-effect="non-scaling-stroke"  transform=" translate(-156.18, -239.5)" d="M 156.1791239077193 239.49879860558775 L 156.1811239077193 239.49879860558775" stroke-linecap="round" />
</g>
</svg>